<svg width="154" height="151" viewBox="0 0 154 151" fill="none" xmlns="http://www.w3.org/2000/svg">
<path d="M28.5004 42.2513L39.1981 47.6001C41.1673 48.4602 43.3101 48.8478 45.4555 48.7317C47.6009 48.6156 49.6894 47.9992 51.554 46.9315L61.6636 40.3524C63.4031 39.0898 64.8189 37.433 65.7951 35.5179C66.7712 33.6027 67.2802 31.4835 67.2796 29.3338L66.638 17.2721C66.4038 15.1398 65.672 13.092 64.5014 11.2942C63.3306 9.49649 61.754 7.99881 59.8982 6.92209L49.2005 1.43951C47.2353 0.569256 45.0926 0.173977 42.9461 0.2855C40.7996 0.397024 38.7093 1.01214 36.8446 2.08138L26.7356 8.66047C24.9991 9.92628 23.5854 11.5836 22.6097 13.4982C21.6338 15.4126 21.123 17.5305 21.119 19.6791L21.7609 31.7408C21.9687 33.9023 22.6884 35.983 23.8603 37.8107C25.0322 39.6386 26.623 41.1609 28.5004 42.2513Z" fill="#414042"/>
<path d="M93.0341 57.8702L82.3364 52.3876C80.372 51.5278 78.2336 51.1405 76.0924 51.2566C73.9513 51.3727 71.8673 51.9891 70.0073 53.0562L59.791 59.6353C58.0609 60.907 56.6517 62.5657 55.6766 64.479C54.7015 66.392 54.187 68.5067 54.1747 70.654L54.8168 82.7156C55.0508 84.8482 55.7825 86.896 56.9531 88.6938C58.124 90.4915 59.7006 91.9892 61.5561 93.0657L72.2538 98.4145C74.2147 99.2845 76.3529 99.6801 78.4954 99.5685C80.6376 99.457 82.7231 98.8416 84.5829 97.7727L94.719 91.1936C96.4499 89.9163 97.8588 88.2528 98.8336 86.3352C99.8087 84.4179 100.323 82.2992 100.335 80.1482L99.6934 68.1133C99.4482 66.0082 98.7194 63.9882 97.5643 62.2113C96.409 60.4345 94.8586 58.9488 93.0341 57.8702Z" fill="#414042"/>
<path d="M126.037 108.738L115.339 103.389C113.374 102.519 111.231 102.123 109.085 102.235C106.938 102.346 104.848 102.962 102.983 104.031L92.8742 110.61C91.1406 111.879 89.7293 113.537 88.7539 115.451C87.7783 117.364 87.2659 119.481 87.2576 121.629L87.8997 133.691C88.1557 135.789 88.8922 137.8 90.0518 139.566C91.2112 141.334 92.7629 142.81 94.5858 143.88L105.284 149.229C107.252 150.089 109.395 150.476 111.541 150.36C113.686 150.244 115.774 149.628 117.639 148.56L127.775 141.981C129.507 140.712 130.915 139.054 131.886 137.139C132.857 135.225 133.364 133.109 133.365 130.963L132.803 119.115C132.572 116.975 131.839 114.919 130.663 113.116C129.488 111.313 127.902 109.812 126.037 108.738Z" fill="#414042"/>
<path d="M47.2214 78.784L46.7133 69.3967C46.7256 67.2494 47.2399 65.1348 48.2152 63.2217C49.1903 61.3085 50.5992 59.6498 52.3296 58.3781L72.0401 45.5676C73.8999 44.5005 75.9841 43.884 78.1252 43.7679C80.2664 43.6519 82.4049 44.0394 84.3692 44.899L92.7669 49.178C94.7324 50.0483 96.8748 50.4439 99.0213 50.3323C101.168 50.2208 103.258 49.6054 105.123 48.5362L115.232 41.9303C116.967 40.6632 118.379 39.0056 119.355 37.0912C120.331 35.1772 120.842 33.0603 120.848 30.9117L120.207 18.8768C119.977 16.7396 119.246 14.6865 118.076 12.8839C116.905 11.0811 115.326 9.5794 113.467 8.5L102.769 3.01742C100.8 2.1576 98.6576 1.77007 96.5119 1.88614C94.3665 2.00221 92.278 2.61867 90.4134 3.68603L80.0901 10.1581C78.3584 11.4269 76.9501 13.0856 75.979 14.9999C75.0079 16.9143 74.5014 19.0303 74.5006 21.1768L74.982 30.564C74.9812 32.7108 74.4744 34.8268 73.5033 36.7412C72.5322 38.6555 71.1239 40.3142 69.3924 41.5827L49.6819 54.3932C47.8173 55.4624 45.7272 56.0778 43.5807 56.1893C41.434 56.3008 39.2915 55.9053 37.326 55.035L28.9551 50.7827C26.9896 49.9124 24.8472 49.5172 22.7004 49.6287C20.5539 49.7402 18.4638 50.3553 16.5992 51.4246L6.48989 58.0037C4.75338 59.2695 3.33995 60.9268 2.36406 62.8414C1.38816 64.7561 0.877608 66.8737 0.873596 69.0223L1.51545 81.084C1.74331 83.2219 2.47263 85.2759 3.6435 87.079C4.81463 88.8821 6.39441 90.3832 8.25501 91.4607L18.9527 96.8096C20.9216 97.6697 23.0644 98.0572 25.2098 97.9411C27.3552 97.8251 29.444 97.2086 31.3086 96.141L41.4179 89.5619C43.1552 88.3389 44.5836 86.7284 45.5911 84.8576C46.5983 82.9871 47.1564 80.9077 47.2214 78.784Z" fill="#414042"/>
<path d="M153.102 69.7449C152.864 67.6099 152.131 65.5602 150.961 63.7588C149.791 61.9573 148.216 60.4537 146.363 59.3681L135.665 54.0193C133.696 53.1613 131.553 52.7749 129.408 52.891C127.263 53.007 125.174 53.6224 123.309 54.6879L113.2 61.267C111.466 62.5357 110.055 64.1936 109.08 66.1074C108.104 68.0213 107.592 70.1375 107.584 72.2856L108.092 81.6996C108.083 83.8475 107.571 85.9637 106.595 87.8776C105.62 89.7914 104.209 91.4495 102.475 92.7183L82.7913 105.502C80.9267 106.569 78.8382 107.186 76.6928 107.302C74.5474 107.418 72.4046 107.03 70.4355 106.171L62.0378 101.892C60.0734 101.032 57.9349 100.644 55.7938 100.76C53.6526 100.877 51.5687 101.493 49.7086 102.56L39.4923 109.113C37.7622 110.384 36.3534 112.043 35.378 113.956C34.4029 115.869 33.8886 117.984 33.8763 120.131L34.5179 132.193C34.7522 134.325 35.4839 136.373 36.6545 138.171C37.8254 139.968 39.4019 141.466 41.2577 142.543L51.9554 148.025C53.916 148.895 56.0543 149.291 58.1965 149.179C60.339 149.068 62.4245 148.452 64.2845 147.383L74.4204 140.804C76.1491 139.531 77.5572 137.872 78.532 135.959C79.5071 134.046 80.0222 131.933 80.0369 129.786L79.5288 120.372C79.5346 118.223 80.0463 116.106 81.0219 114.192C81.9975 112.278 83.4099 110.62 85.1448 109.353L104.829 96.5427C106.693 95.4735 108.784 94.8581 110.93 94.7465C113.077 94.635 115.219 95.0303 117.184 95.9006L125.555 100.153C127.521 101.023 129.664 101.419 131.81 101.307C133.957 101.196 136.047 100.581 137.911 99.5113L148.048 92.9322C149.777 91.6619 151.185 90.0029 152.156 88.0891C153.127 86.175 153.634 84.0595 153.637 81.9136L153.102 69.7449Z" fill="#414042"/>
</svg>
